<svg xmlns="http://www.w3.org/2000/svg" width="960" height="640" viewBox="0 0 960 640" fill="none">
  <defs>
    <linearGradient id="bg" x1="0" y1="0" x2="960" y2="640" gradientUnits="userSpaceOnUse">
      <stop stop-color="#F7FBFF"/>
      <stop offset="1" stop-color="#EFF6FF"/>
    </linearGradient>
    <linearGradient id="card" x1="0" y1="0" x2="1" y2="1">
      <stop stop-color="#FFFFFF"/>
      <stop offset="1" stop-color="#F8FAFC"/>
    </linearGradient>
    <filter id="shadow" x="-50" y="-50" width="1060" height="740" filterUnits="userSpaceOnUse" color-interpolation-filters="sRGB">
      <feDropShadow dx="0" dy="8" stdDeviation="12" flood-color="#0B1C2E" flood-opacity="0.12"/>
    </filter>
  </defs>

  <rect x="0" y="0" width="960" height="640" rx="32" fill="url(#bg)"/>

  <circle cx="146" cy="132" r="88" fill="#FDE7EF"/>
  <circle cx="828" cy="518" r="92" fill="#DFF7F6"/>

  <g filter="url(#shadow)">
    <rect x="88" y="74" width="784" height="492" rx="24" fill="url(#card)" stroke="#D5DFEB" stroke-width="2"/>
  </g>

  <!-- Header row -->
  <rect x="120" y="108" width="720" height="56" rx="14" fill="#FFFFFF" stroke="#D7E1EE"/>
  <circle cx="150" cy="136" r="9" fill="#22D3EE"/>
  <text x="172" y="142" fill="#032434" font-family="Urbanist, Outfit, Arial, sans-serif" font-size="22" font-weight="800">EmbodiTrust</text>
  <rect x="630" y="118" width="182" height="36" rx="10" fill="#032434"/>
  <text x="662" y="141" fill="#FFFFFF" font-family="Urbanist, Outfit, Arial, sans-serif" font-size="16" font-weight="700">Verified Product</text>

  <!-- Left: person scanning -->
  <g transform="translate(136 208)">
    <circle cx="82" cy="46" r="28" fill="#F9D9C1"/>
    <path d="M60 42c2-18 42-20 46 0" stroke="#0B1C2E" stroke-width="4" stroke-linecap="round"/>
    <rect x="48" y="78" width="72" height="96" rx="18" fill="#1F9AA5"/>
    <rect x="58" y="94" width="52" height="32" rx="8" fill="#DFF7F6"/>
    <rect x="110" y="92" width="56" height="18" rx="9" fill="#032434"/>
    <text x="122" y="105" fill="#FFFFFF" font-family="Urbanist, Outfit, Arial, sans-serif" font-size="11" font-weight="700">SCAN</text>
    <rect x="154" y="86" width="28" height="52" rx="6" fill="#FFFFFF" stroke="#0B1C2E" stroke-width="2"/>
    <rect x="159" y="92" width="18" height="28" rx="3" fill="#E6EEF7"/>
    <rect x="162" y="96" width="4" height="4" fill="#0B1C2E"/>
    <rect x="170" y="96" width="4" height="4" fill="#0B1C2E"/>
    <rect x="162" y="104" width="4" height="4" fill="#0B1C2E"/>
    <rect x="170" y="104" width="4" height="4" fill="#0B1C2E"/>
    <rect x="66" y="174" width="14" height="56" rx="7" fill="#0B1C2E"/>
    <rect x="90" y="174" width="14" height="56" rx="7" fill="#0B1C2E"/>
  </g>

  <!-- Middle: product and qr -->
  <g transform="translate(386 224)">
    <rect x="0" y="0" width="184" height="272" rx="16" fill="#FFFFFF" stroke="#CDD8E6" stroke-width="2"/>
    <rect x="20" y="20" width="144" height="42" rx="10" fill="#ECFEFF"/>
    <text x="34" y="47" fill="#032434" font-family="Urbanist, Outfit, Arial, sans-serif" font-size="18" font-weight="800">EmbodiTrust Seal</text>
    <rect x="28" y="80" width="128" height="128" rx="10" fill="#FFFFFF" stroke="#0B1C2E" stroke-width="2"/>
    <rect x="40" y="92" width="16" height="16" fill="#0B1C2E"/>
    <rect x="64" y="92" width="16" height="16" fill="#0B1C2E"/>
    <rect x="88" y="92" width="16" height="16" fill="#0B1C2E"/>
    <rect x="112" y="92" width="16" height="16" fill="#0B1C2E"/>
    <rect x="40" y="116" width="16" height="16" fill="#0B1C2E"/>
    <rect x="88" y="116" width="16" height="16" fill="#0B1C2E"/>
    <rect x="112" y="116" width="16" height="16" fill="#0B1C2E"/>
    <rect x="64" y="140" width="16" height="16" fill="#0B1C2E"/>
    <rect x="88" y="140" width="16" height="16" fill="#0B1C2E"/>
    <rect x="112" y="140" width="16" height="16" fill="#0B1C2E"/>
    <rect x="40" y="164" width="16" height="16" fill="#0B1C2E"/>
    <rect x="64" y="164" width="16" height="16" fill="#0B1C2E"/>
    <rect x="112" y="164" width="16" height="16" fill="#0B1C2E"/>
    <rect x="20" y="222" width="144" height="30" rx="8" fill="#F1F5F9"/>
    <text x="34" y="243" fill="#475569" font-family="Urbanist, Outfit, Arial, sans-serif" font-size="15" font-weight="700">Status: Active</text>
  </g>

  <!-- Right: dashboard result -->
  <g transform="translate(612 214)">
    <rect x="0" y="0" width="216" height="292" rx="16" fill="#FFFFFF" stroke="#CDD8E6" stroke-width="2"/>
    <rect x="0" y="0" width="216" height="56" rx="16" fill="#ECFEFF"/>
    <text x="22" y="35" fill="#032434" font-family="Urbanist, Outfit, Arial, sans-serif" font-size="20" font-weight="800">Verification Result</text>

    <circle cx="34" cy="92" r="11" fill="#22C55E"/>
    <path d="M29 92l4 4 8-9" stroke="#FFFFFF" stroke-width="2.5" stroke-linecap="round" stroke-linejoin="round"/>
    <text x="54" y="99" fill="#16A34A" font-family="Urbanist, Outfit, Arial, sans-serif" font-size="18" font-weight="800">GENUINE</text>

    <rect x="20" y="118" width="176" height="1" fill="#E2E8F0"/>

    <text x="22" y="152" fill="#64748B" font-family="Urbanist, Outfit, Arial, sans-serif" font-size="13" font-weight="700">Code</text>
    <text x="116" y="152" fill="#0F172A" font-family="Urbanist, Outfit, Arial, sans-serif" font-size="13" font-weight="800">EMB-7K2P-193</text>

    <text x="22" y="182" fill="#64748B" font-family="Urbanist, Outfit, Arial, sans-serif" font-size="13" font-weight="700">First Scan</text>
    <text x="116" y="182" fill="#0F172A" font-family="Urbanist, Outfit, Arial, sans-serif" font-size="13" font-weight="800">Lagos, NG</text>

    <text x="22" y="212" fill="#64748B" font-family="Urbanist, Outfit, Arial, sans-serif" font-size="13" font-weight="700">Risk Level</text>
    <text x="116" y="212" fill="#0F172A" font-family="Urbanist, Outfit, Arial, sans-serif" font-size="13" font-weight="800">Low</text>

    <rect x="20" y="236" width="176" height="36" rx="10" fill="#032434"/>
    <text x="54" y="260" fill="#FFFFFF" font-family="Urbanist, Outfit, Arial, sans-serif" font-size="15" font-weight="700">View Full Evidence</text>
  </g>

  <text x="120" y="542" fill="#64748B" font-family="Urbanist, Outfit, Arial, sans-serif" font-size="14" font-weight="700">Product verification powered by EmbodiTrust Intelligence</text>
</svg>
